Coordinates
version=1
nRows=23
nColumns=30
inDegrees=yes

Units are S.I. units (second, meters, Newtons, ...)
Angles are in degrees.

endheader
time	floatyaw	floatroll	floatpitch	floatx	floaty	floatz	pro_sup_l	deviation_l	flexion_l	cmc_flexion_l	cmc_abduction_l	mp_flexion_l	ip_flexion_l	2mcp_flexion_l	2mcp_abduction_l	2pm_flexion_l	2md_flexion_l	3mcp_flexion_l	3mcp_abduction_l	3pm_flexion_l	3md_flexion_l	4mcp_flexion_l	4mcp_abduction_l	4pm_flexion_l	4md_flexion_l	5mcp_flexion_l	5mcp_abduction_l	5pm_flexion_l	5md_flexion_l
-1.495000	-160.147433	-5.066637	-73.570646	0.082082	-0.182211	-0.016127	102.645190	4.426356	-0.815168	16.225384	5.693186	-25.107364	-41.171852	29.954050	7.032319	42.370634	28.941751	24.383691	4.283438	43.863544	28.905247	13.107685	-4.352073	52.197768	35.980827	0.516259	-8.496969	62.122260	43.706688
-1.485000	-160.147433	-5.066637	-73.570646	0.082077	-0.182214	-0.016127	102.652822	4.429827	-0.819785	16.227585	5.712393	-25.121963	-41.188812	29.957896	7.041838	42.366204	28.941362	24.378722	4.284244	43.888036	28.918431	13.109155	-4.352372	52.212133	35.988200	0.524901	-8.500870	62.137097	43.711761
-1.475000	-160.147433	-5.066637	-73.570646	0.082073	-0.182216	-0.016126	102.665151	4.436110	-0.823035	16.231365	5.721665	-25.134746	-41.204595	29.956825	7.052147	42.361707	28.939212	24.366528	4.284549	43.917334	28.933598	13.107244	-4.353048	52.229073	35.995489	0.532611	-8.506206	62.150717	43.716662
-1.465000	-160.147433	-5.066637	-73.570646	0.082070	-0.182215	-0.016125	102.678652	4.443615	-0.823501	16.232710	5.725453	-25.143862	-41.212781	29.952964	7.060616	42.359866	28.938033	24.347628	4.284326	43.946733	28.950167	13.099788	-4.353974	52.246457	36.002723	0.536879	-8.513122	62.160850	43.720479
-1.455000	-160.147433	-5.066637	-73.570646	0.082069	-0.182213	-0.016125	102.689648	4.450348	-0.820908	16.227984	5.730480	-25.149160	-41.209948	29.949321	7.065423	42.363107	28.940210	24.325128	4.283841	43.971249	28.966512	13.086628	-4.354755	52.262059	36.009756	0.536337	-8.521130	62.167030	43.722889
-1.445000	-160.147433	-5.066637	-73.570646	0.082069	-0.182210	-0.016126	102.695447	4.454639	-0.816417	16.214515	5.742887	-25.151444	-41.196316	29.949179	7.066400	42.372205	28.946631	24.303965	4.283488	43.987856	28.980628	13.070466	-4.354840	52.273699	36.015967	0.531549	-8.528974	62.170153	43.723767
-1.435000	-160.147433	-5.066637	-73.570646	0.082069	-0.182208	-0.016127	102.695054	4.455771	-0.812101	16.191155	5.765176	-25.151516	-41.174739	29.955020	7.064918	42.385841	28.956468	24.289057	4.283577	43.996494	28.990888	13.056023	-4.353789	52.279545	36.020308	0.524727	-8.534997	62.171487	43.722749
-1.425000	-160.147433	-5.066637	-73.570646	0.082068	-0.182207	-0.016129	102.689421	4.454270	-0.809836	16.158856	5.794476	-25.149630	-41.149078	29.967334	7.062984	42.401038	28.967685	24.283120	4.284220	43.999444	28.996534	13.047732	-4.351545	52.278740	36.021795	0.518443	-8.537934	62.172008	43.719393
-1.415000	-160.147433	-5.066637	-73.570646	0.082067	-0.182209	-0.016130	102.681289	4.451764	-0.810256	16.120927	5.823295	-25.145446	-41.122943	29.983945	7.062215	42.414325	28.977887	24.285265	4.285376	43.999913	28.997893	13.047316	-4.348549	52.272236	36.020217	0.514319	-8.537693	62.172331	43.713841
-1.405000	-160.147433	-5.066637	-73.570646	0.082067	-0.182211	-0.016129	102.674493	4.450449	-0.812476	16.082530	5.842647	-25.138295	-41.099249	30.000468	7.063319	42.423129	28.985113	24.291345	4.286960	44.000826	28.996359	13.052851	-4.345628	52.263151	36.016597	0.512577	-8.535487	62.172948	43.707231
-1.395000	-160.147433	-5.066637	-73.570646	0.082067	-0.182212	-0.016126	102.672599	4.452232	-0.814717	16.049215	5.846156	-25.127804	-41.080408	30.012070	7.066227	42.426644	28.988311	24.296103	4.288875	44.004225	28.994061	13.059967	-4.343701	52.255991	36.012928	0.512476	-8.533112	62.174368	43.701335
-1.385000	-160.147433	-5.066637	-73.570646	0.082068	-0.182212	-0.016121	102.677217	4.457765	-0.815420	16.024918	5.833253	-25.114757	-41.068555	30.015738	7.070644	42.425837	28.987474	24.295954	4.290912	44.011191	28.993175	13.064368	-4.343423	52.254885	36.011301	0.513075	-8.531855	62.177039	43.697635
-1.375000	-160.147433	-5.066637	-73.570646	0.082070	-0.182211	-0.016115	102.687046	4.465893	-0.814110	16.010353	5.809928	-25.101614	-41.065255	30.011574	7.076561	42.422884	28.983631	24.290604	4.292639	44.022206	28.995239	13.063975	-4.344912	52.261866	36.012945	0.513825	-8.531811	62.181096	43.696608
-1.365000	-160.147433	-5.066637	-73.570646	0.082072	-0.182209	-0.016108	102.698491	4.474030	-0.811478	16.002769	5.786547	-25.091947	-41.070586	30.002209	7.084352	42.420555	28.978827	24.282421	4.293489	44.037679	29.000887	13.059381	-4.347708	52.276283	36.017818	0.514822	-8.532094	62.186084	43.697676
-1.355000	-160.147433	-5.066637	-73.570646	0.082073	-0.182208	-0.016104	102.707591	4.479429	-0.808686	15.997223	5.773659	-25.088831	-41.082220	29.990901	7.094336	42.421599	28.975838	24.274199	4.293080	44.058002	29.010006	13.052705	-4.351045	52.295524	36.024899	0.516648	-8.531690	62.190896	43.699698
-1.345000	-160.147433	-5.066637	-73.570646	0.082072	-0.182207	-0.016102	102.711884	4.480569	-0.806476	15.988640	5.777641	-25.093323	-41.095583	29.979939	7.106116	42.427680	28.977258	24.267220	4.291577	44.082619	29.021797	13.045964	-4.354288	52.316348	36.032850	0.519690	-8.530247	62.194137	43.701555
-1.335000	-160.147433	-5.066637	-73.570646	0.082071	-0.182207	-0.016102	102.710977	4.477734	-0.804690	15.973530	5.798141	-25.104327	-41.105716	29.970463	7.118266	42.437960	28.984044	24.261023	4.289746	44.108643	29.034501	13.040088	-4.357234	52.336005	36.040531	0.523200	-8.528188	62.194810	43.702528
-1.325000	-160.147433	-5.066637	-73.570646	0.082069	-0.182206	-0.016104	102.705851	4.472564	-0.802458	15.950757	5.828418	-25.119883	-41.110026	29.963309	7.128676	42.448485	28.994494	24.254667	4.288590	44.130582	29.045269	13.034884	-4.360065	52.352780	36.047157	0.524821	-8.526133	62.192946	43.702459
-1.315000	-160.147433	-5.066637	-73.570646	0.082067	-0.182205	-0.016106	102.697912	4.467099	-0.798799	15.921449	5.858395	-25.138616	-41.110022	29.959574	7.135407	42.453658	29.004752	24.248057	4.288774	44.142221	29.050897	13.029561	-4.363006	52.366062	36.052201	0.521284	-8.524204	62.189731	43.701805
-1.305000	-160.147433	-5.066637	-73.570646	0.082067	-0.182203	-0.016107	102.688596	4.463039	-0.793190	15.888429	5.879046	-25.160043	-41.110622	29.960196	7.137514	42.449413	29.010794	24.242138	4.290223	44.139887	29.049325	13.023317	-4.365981	52.376090	36.055229	0.510113	-8.521844	62.186944	43.701609
-1.295000	-160.147433	-5.066637	-73.570646	0.082070	-0.182201	-0.016108	102.679407	4.461442	-0.785795	15.855353	5.886117	-25.183736	-41.117409	29.965085	7.135383	42.435925	29.010571	24.238036	4.292151	44.124918	29.040925	13.015734	-4.368515	52.383446	36.055842	0.491297	-8.518370	62.185964	43.703277
-1.285000	-160.147433	-5.066637	-73.570646	0.082074	-0.182200	-0.016107	102.671798	4.462698	-0.777398	15.825574	5.881456	-25.208375	-41.133568	29.972849	7.130433	42.417747	29.004845	24.236123	4.293483	44.103479	29.028563	13.007012	-4.369932	52.388465	36.053766	0.467856	-8.513804	62.186942	43.707980
-1.275000	-160.147433	-5.066637	-73.570646	0.082080	-0.182198	-0.016106	102.666781	4.466588	-0.769173	15.800965	5.871393	-25.231584	-41.158142	29.981455	7.124458	42.401358	28.996435	24.235860	4.293396	44.083757	29.016348	12.998064	-4.369709	52.390865	36.049059	0.445009	-8.509273	62.188726	43.715760
